{"title":"Inside.Out.2015.HD-TS.XVID.AC3-VAiN","uid":12154420,"size":984483779,"categoryP":"video","categoryS":"movies","magnet":"?xt=urn:btih:8b12acab7fe24fda2b6bc80b533fab1498e27467&amp;dn=Inside.Out.2015.HD-TS.XVID.AC3-VAiN&amp;tr=udp%3A%2F%2Ftracker.openbittorrent.com%3A80&amp;tr=udp%3A%2F%2Fopen.demonii.com%3A1337&amp;tr=udp%3A%2F%2Ftracker.coppersurfer.tk%3A6969&amp;tr=udp%3A%2F%2Fexodus.desync.com%3A6969","seeders":0,"leechers":0,"uploader":"TvTeam","files":4,"time":1437735819,"description":"------------------------------------------------------------------------\n\n &lt;a href=&quot; https://www.torrenting.com&quot; rel=&quot;nofollow&quot; target=&quot;_NEW&quot;&gt; https://www.torrenting.com&lt;/a&gt;\n\nSign up is OPEN - for time being. Come and have fun\n\n.......................................................................................................................[img]http://i.imgur.com/FJi0aRt.png[/img] \n\n[b]P R E S E N T S . . . .[/b] \n\nInside.Out.2015.HD-TS.XVID.AC3-VAiN\n\niMDB........: http://www.imdb.com/title/tt2096673/\n\nPLOT........: After young Riley is uprooted from her Midwest life and moved to San Francisco, her emotions - Joy, Fear, Anger, Disgust and Sadness - conflict on how best to navigate a new city, house and school.\n\n\nT E C H N i C A L . i N F O . . .\n\nBasic Information\nComplete name                            : C:UsersjestingsDesktopScreen ShotsInside.Out.2015.HD-TS.XVID.AC3-VAiNInside.Out.2015.HD-TS.XVID.AC3-VAiN.avi\nFormat                                   : AVI\nFormat/Info                              : Audio Video Interleave\nFile size                                : 927 MiB\nDuration                                 : 1h 26mn\nOverall bit rate                         : 1 506 Kbps\nWriting application                      : VirtualDubMod 1.5.10.2 (build 2540/release)\nWriting library                          : VirtualDubMod build 2540/release\n\nVideo\nID                                       : 0\nFormat                                   : MPEG-4 Visual\nFormat profile                           : Advanced Simple@L5\nFormat settings, BVOP                    : 2\nFormat settings, QPel                    : No\nFormat settings, GMC                     : No warppoints\nFormat settings, Matrix                  : Default (MPEG)\nMuxing mode                              : Packed bitstream\nCodec ID                                 : XVID\nCodec ID/Hint                            : XviD\nDuration                                 : 1h 26mn\nBit rate                                 : 1 240 Kbps\nWidth                                    : 600 pixels\nHeight                                   : 336 pixels\nDisplay aspect ratio                     : 16:9\nFrame rate                               : 23.976 fps\nColor space                              : YUV\nChroma subsampling                       : 4:2:0\nBit depth                                : 8 bits\nScan type                                : Progressive\nCompression mode                         : Lossy\nBits/(Pixel*Frame)                       : 0.257\nStream size                              : 763 MiB (82%)\nWriting library                          : XviD 66\n\nAudio\nID                                       : 1\nFormat                                   : AC-3\nFormat/Info                              : Audio Coding 3\nMode extension                           : CM (complete main)\nFormat settings, Endianness              : Big\nCodec ID                                 : 2000\nDuration                                 : 1h 26mn\nBit rate mode                            : Constant\nBit rate                                 : 256 Kbps\nChannel(s)                               : 2 channels\nChannel positions                        : Front: L R\nSampling rate                            : 48.0 KHz\nBit depth                                : 16 bits\nCompression mode                         : Lossy\nStream size                              : 158 MiB (17%)\nAlignment                                : Split accross interleaves\nInterleave, duration                     : 42 ms (1.00 video frame)\nInterleave, preload duration             : 500 ms\n\n\n\n\nE N C O D E R S . N O T E S . . .       \n\nSOURCE......: ViDEO...Assistir - Divertida Mente MP4 &amp; Hive-CM8\n............: AUDiO...HiVE-CM8 release\nSAMPLE......: Yippers \nADDED NOTE..: video was really nice, however did tweak a few things here and there. rgb, lvls, denoise, sharp &amp; resized. tooks Hive-CM8's video and stoles some :shit: from them &quot;LOL!!!!&quot; straight up kniced from them. then took audio, threw in AA ran just a few filters then muxed ova this sexy mofo and well.... here we are!!! oh the lulz\n\n\n\nS C R E E N . S H O T S . . .\n\n[img]http://i.imgur.com/6ePUvhZ.png[/img]\n\n[img]http://i.imgur.com/Qe8Ahm3.png[/img]\n\n[img]http://i.imgur.com/rV58gZB.png[/img]\n\n[img]http://i.imgur.com/KUI1sec.png[/img]\n\n[img]http://i.imgur.com/wW3CHj0.png[/img]\n\n[img]http://i.imgur.com/4chIBib.png[/img]\n\n[img]http://i.imgur.com/Kzx8y3X.png[/img]\n\n[img]http://i.imgur.com/ExOjoKs.png[/img]\n\n\n\n\n\ngot any funny stories, jokes, nakid pix of ya sisters/gf's or just want to reach out to us giz us some treats send to... &lt;a class=&quot;__cf_email__&quot; href=&quot;/cdn-cgi/l/email-protection&quot; data-cfemail=&quot;f1a7b098bfb1998482999c90989ddf9c94&quot;&gt;[email&amp;#160;protected]&lt;/a&gt;&lt;script data-cfhash='f9e31' type=&quot;text/javascript&quot;&gt;\n/* &lt;![CDATA[ */!function(){try{var t=&quot;currentScript&quot;in document?document.currentScript:function(){for(var t=document.getElementsByTagName(&quot;script&quot;),e=t.length;e--;)if(t[e].getAttribute(&quot;data-cfhash&quot;))return t[e]}();if(t&amp;&amp;t.previousSibling){var e,r,n,i,c=t.previousSibling,a=c.getAttribute(&quot;data-cfemail&quot;);if(a){for(e=&quot;&quot;,r=parseInt(a.substr(0,2),16),n=2;a.length-n;n+=2)i=parseInt(a.substr(n,2),16)^r,e+=String.fromCharCode(i);e=document.createTextNode(e),c.parentNode.replaceChild(e,c)}t.parentNode.removeChild(t);}}catch(u){}}()/* ]]&gt; */&lt;/script&gt; ;) \n\n***DISCLAiMER*** as you can see there were no special friend that passed us some special vobs. what you see here is work put into a source. sum may like others may just hate...VAiN stands behind it's QUALiTY and don't claim to be professional HDTSCAMBDBRiPDVDRiPSCRHQ ENCODERS. just a cpl of fella's nipping at ya mums knickers..... \n\n\nGREETZ:\n\nHive-CM8 | Rx | REFiLL | JEDI | DREAMER n' LADY | 26k |Unevano | EsX | TOFFEE\nGH0ST | ViSiON | Sugarb | DeviAntsRUs | STARLETS | GUSH | spangy | jamie111 | TED |\n\nAnd all the release grps that don't hide behind new names, or live in the past n glory of old has been that neva were release grps\n\nCheer's to our wives n girlfriends... may they neva meet :shifty","torrent":{"xt":"urn:btih:8b12acab7fe24fda2b6bc80b533fab1498e27467","amp;dn":"Inside.Out.2015.HD-TS.XVID.AC3-VAiN","amp;tr":["udp%3A%2F%2Ftracker.openbittorrent.com%3A80","udp%3A%2F%2Fopen.demonii.com%3A1337","udp%3A%2F%2Ftracker.coppersurfer.tk%3A6969","udp%3A%2F%2Fexodus.desync.com%3A6969"],"infoHash":"8b12acab7fe24fda2b6bc80b533fab1498e27467","infoHashBuffer":{"type":"Buffer","data":[139,18,172,171,127,226,79,218,43,107,200,11,83,63,171,20,152,226,116,103]},"announce":[],"urlList":[]}}